<svg xmlns="http://www.w3.org/2000/svg" xmlns:xlink="http://www.w3.org/1999/xlink" width="500" zoomAndPan="magnify" viewBox="0 0 375 374.999991" height="500" preserveAspectRatio="xMidYMid meet" version="1.0"><defs><clipPath id="3814b1a7fb"><path d="M 10.710938 53.804688 L 363.960938 53.804688 L 363.960938 321.554688 L 10.710938 321.554688 Z M 10.710938 53.804688 " clip-rule="nonzero"/></clipPath></defs><rect x="-37.5" width="450" fill="#ffffff" y="-37.499999" height="449.999989" fill-opacity="1"/><rect x="-37.5" width="450" fill="#10002b" y="-37.499999" height="449.999989" fill-opacity="1"/><g clip-path="url(#3814b1a7fb)"><path fill="#ffffff" d="M 238.050781 147.875 C 238.050781 143.054688 234.144531 139.152344 229.324219 139.152344 C 224.507812 139.152344 220.597656 143.054688 220.597656 147.875 C 220.597656 152.699219 224.507812 156.601562 229.324219 156.601562 C 234.144531 156.601562 238.050781 152.699219 238.050781 147.875 Z M 247.015625 221.769531 C 242.191406 221.769531 238.285156 225.671875 238.285156 230.492188 C 238.285156 235.308594 242.191406 239.21875 247.015625 239.21875 C 251.832031 239.21875 255.738281 235.308594 255.738281 230.492188 C 255.738281 225.671875 251.832031 221.769531 247.015625 221.769531 Z M 104.90625 244.246094 C 101.496094 247.652344 101.496094 253.175781 104.90625 256.585938 C 108.3125 259.992188 113.835938 259.992188 117.246094 256.585938 C 120.652344 253.175781 120.652344 247.652344 117.246094 244.246094 C 113.835938 240.835938 108.3125 240.835938 104.90625 244.246094 Z M 146.585938 160.597656 C 141.765625 160.597656 137.859375 164.5 137.859375 169.320312 C 137.859375 174.140625 141.765625 178.046875 146.585938 178.046875 C 151.40625 178.046875 155.3125 174.140625 155.3125 169.320312 C 155.3125 164.5 151.40625 160.597656 146.585938 160.597656 Z M 342.816406 179.800781 C 331.675781 167.199219 317.175781 158.21875 301.164062 153.855469 C 300.066406 120.164062 272.320312 93.089844 238.367188 93.089844 C 234.425781 93.089844 230.527344 93.453125 226.703125 94.175781 C 220.09375 83.59375 211.242188 74.546875 200.691406 67.675781 C 186.789062 58.625 170.636719 53.835938 153.980469 53.835938 C 106.726562 53.835938 68.28125 92.28125 68.28125 139.535156 C 68.28125 144.789062 68.753906 149.992188 69.695312 155.097656 C 54.980469 159.933594 41.71875 168.730469 31.472656 180.617188 C 18.082031 196.148438 10.710938 216.007812 10.710938 236.539062 C 10.710938 237.128906 10.71875 237.71875 10.730469 238.308594 C 11.441406 273.410156 33.761719 303.015625 64.714844 315.179688 L 64.714844 222.652344 C 60.136719 220.234375 57.019531 215.421875 57.019531 209.886719 C 57.019531 201.71875 63.792969 195.140625 72.027344 195.453125 C 79.46875 195.738281 85.550781 201.765625 85.890625 209.210938 C 86.15625 215.03125 82.972656 220.132812 78.210938 222.652344 L 78.210938 319.234375 C 83.988281 320.464844 89.972656 321.113281 96.097656 321.113281 L 150.167969 321.113281 L 150.167969 291.441406 L 115.332031 264.214844 C 110.382812 265.734375 104.777344 264.539062 100.863281 260.625 C 95.089844 254.855469 95.226562 245.410156 101.269531 239.8125 C 106.730469 234.746094 115.300781 234.714844 120.796875 239.734375 C 125.101562 243.664062 126.460938 249.523438 124.875 254.671875 L 163.664062 285.851562 L 163.664062 321.113281 L 181.085938 321.113281 L 181.085938 263.449219 L 139.839844 231.054688 L 139.839844 182.089844 C 135.078125 179.570312 131.894531 174.46875 132.160156 168.648438 C 132.5 161.203125 138.582031 155.175781 146.023438 154.890625 C 154.253906 154.578125 161.027344 161.15625 161.027344 169.320312 C 161.027344 174.859375 157.910156 179.667969 153.335938 182.089844 L 153.335938 224.488281 L 181.085938 246.285156 L 181.085938 138.316406 C 176.511719 135.890625 173.394531 131.082031 173.394531 125.542969 C 173.394531 117.382812 180.167969 110.800781 188.402344 111.113281 C 195.84375 111.394531 201.925781 117.429688 202.261719 124.867188 C 202.527344 130.6875 199.34375 135.792969 194.585938 138.316406 L 194.585938 208.953125 L 222.574219 186.976562 L 222.574219 160.644531 C 218 158.222656 214.882812 153.414062 214.882812 147.875 C 214.882812 139.710938 221.652344 133.132812 229.886719 133.441406 C 237.332031 133.730469 243.410156 139.761719 243.753906 147.203125 C 244.019531 153.023438 240.832031 158.125 236.074219 160.644531 L 236.074219 193.535156 L 194.585938 226.117188 L 194.585938 321.113281 L 277.054688 321.113281 L 240.261719 292.226562 L 240.261719 243.261719 C 235.507812 240.742188 232.320312 235.640625 232.585938 229.820312 C 232.925781 222.375 239.007812 216.347656 246.453125 216.0625 C 254.683594 215.75 261.457031 222.328125 261.457031 230.492188 C 261.457031 236.03125 258.339844 240.839844 253.761719 243.261719 L 253.761719 285.660156 L 281.515625 307.457031 L 281.515625 199.488281 C 276.941406 197.0625 273.820312 192.253906 273.820312 186.714844 C 273.820312 178.554688 280.597656 171.96875 288.828125 172.285156 C 296.269531 172.566406 302.351562 178.601562 302.691406 186.039062 C 302.957031 191.859375 299.773438 196.964844 295.011719 199.488281 L 295.011719 319.875 C 311.335938 317.054688 326.605469 309.484375 338.570312 297.75 C 338.980469 297.347656 339.382812 296.945312 339.789062 296.527344 C 355.589844 280.417969 364.289062 259.109375 364.289062 236.539062 C 364.289062 215.617188 356.664062 195.464844 342.816406 179.800781 Z M 71.460938 201.160156 C 66.644531 201.160156 62.738281 205.066406 62.738281 209.886719 C 62.738281 214.703125 66.644531 218.609375 71.460938 218.609375 C 76.28125 218.609375 80.1875 214.703125 80.1875 209.886719 C 80.1875 205.066406 76.28125 201.160156 71.460938 201.160156 Z M 187.835938 116.820312 C 183.015625 116.820312 179.109375 120.726562 179.109375 125.542969 C 179.109375 130.367188 183.015625 134.273438 187.835938 134.273438 C 192.652344 134.273438 196.5625 130.367188 196.5625 125.542969 C 196.5625 120.726562 192.652344 116.820312 187.835938 116.820312 Z M 288.261719 177.992188 C 283.445312 177.992188 279.539062 181.898438 279.539062 186.714844 C 279.539062 191.535156 283.445312 195.445312 288.261719 195.445312 C 293.082031 195.445312 296.988281 191.535156 296.988281 186.714844 C 296.988281 181.898438 293.082031 177.992188 288.261719 177.992188 " fill-opacity="1" fill-rule="nonzero"/></g></svg>